<svg height="496pt" viewBox="0 0 496 496" width="496pt" xmlns="http://www.w3.org/2000/svg"><path d="m248 8c-132.546875 0-240 107.453125-240 240s107.453125 240 240 240 240-107.453125 240-240-107.453125-240-240-240zm24 408h-48v-48h48zm0-80h-48v-272h48zm0 0" fill="#57a4ff"/><g fill="#004fac"><path d="m248 496c136.964844 0 248-111.035156 248-248s-111.035156-248-248-248-248 111.035156-248 248c.15625 136.902344 111.097656 247.84375 248 248zm0-480c128.128906 0 232 103.871094 232 232s-103.871094 232-232 232-232-103.871094-232-232c.144531-128.070312 103.929688-231.855469 232-232zm0 0"/><path d="m224 344h48c4.417969 0 8-3.582031 8-8v-272c0-4.417969-3.582031-8-8-8h-48c-4.417969 0-8 3.582031-8 8v272c0 4.417969 3.582031 8 8 8zm8-272h32v256h-32zm0 0"/><path d="m224 424h48c4.417969 0 8-3.582031 8-8v-48c0-4.417969-3.582031-8-8-8h-48c-4.417969 0-8 3.582031-8 8v48c0 4.417969 3.582031 8 8 8zm8-48h32v32h-32zm0 0"/></g></svg>