<svg height="495pt" viewBox="0 -8 495.96801 495" width="495pt" xmlns="http://www.w3.org/2000/svg"><path d="m471.957031 240.484375c0 128.128906-103.871093 232-232 232-128.128906 0-232-103.871094-232-232s103.871094-232 232-232c128.128907 0 232 103.871094 232 232zm0 0" fill="#57a4ff"/><g fill="#004fac"><path d="m482.355469 18.757812-313.933594 306.101563-106.402344-121.597656c-1.875-2.171875-4.769531-3.171875-7.582031-2.621094-2.816406.550781-5.121094 2.5625-6.042969 5.28125-.921875 2.714844-.320312 5.714844 1.578125 7.867187l112 128c1.441406 1.632813 3.488282 2.605469 5.664063 2.695313h.320312c2.09375.003906 4.101563-.8125 5.601563-2.273437l320-312c3.164062-3.089844 3.21875-8.164063.125-11.328126-3.089844-3.164062-8.164063-3.21875-11.328125-.125zm0 0"/><path d="m239.957031 480.484375c79.289063-.050781 153.441407-39.230469 198.160157-104.703125 44.71875-65.476562 54.238281-148.800781 25.441406-222.671875-1.613282-4.117187-6.253906-6.148437-10.371094-4.539063-4.113281 1.613282-6.144531 6.253907-4.535156 10.371094 38.957031 99.730469 1.835937 213.085938-88.570313 270.453125-90.402343 57.371094-208.773437 42.691407-282.425781-35.023437-73.648438-77.714844-81.957031-196.703125-19.820312-283.898438 62.136718-87.195312 177.320312-118.183594 274.816406-73.933594 4 1.710938 8.628906-.082031 10.429687-4.039062 1.800781-3.960938.113281-8.632812-3.804687-10.519531-89.269532-40.558594-194.230469-22.738281-265.109375 45.011719-70.878907 67.75-93.417969 171.800781-56.929688 262.808593 36.488281 91.007813 124.667969 150.664063 222.71875 150.683594zm0 0"/></g></svg>